<?xml version="1.0" encoding="UTF-8"?>
<svg version="1.1" xmlns="http://www.w3.org/2000/svg" width="500" height="500">
<path d="M0 0 C165 0 330 0 500 0 C500 165 500 330 500 500 C335 500 170 500 0 500 C0 335 0 170 0 0 Z " fill="#000000" transform="translate(0,0)"/>
<path d="M0 0 C0 0.66 0 1.32 0 2 C-5.98429095 2.29147231 -10.81589893 0.67665682 -16.46484375 -1.125 C-20.13200865 -2.03267396 -23.23835273 -2.06974085 -27 -2 C-27.76683105 -2.16854492 -28.53366211 -2.33708984 -29.32373047 -2.51074219 C-34.67341587 -3.48873613 -40.16955554 -2.64262206 -45.5625 -2.25 C-46.77486328 -2.17523438 -47.98722656 -2.10046875 -49.23632812 -2.0234375 C-57.10245224 -1.46669306 -64.42420621 -0.19071726 -72 2 C-72 1.01 -72 0.02 -72 -1 C-70.16830682 -1.48539869 -68.33453941 -1.96297186 -66.5 -2.4375 C-65.4790625 -2.70433594 -64.458125 -2.97117188 -63.40625 -3.24609375 C-42.77372899 -7.8126953 -20.12466613 -5.92659822 0 0 Z " fill="#141414" transform="translate(336,222)"/>
<path d="M0 0 C0.99 0 1.98 0 3 0 C3 0.99 3 1.98 3 3 C-0.16980331 5.44939347 -2.99541169 7.38390949 -7 8 C-7 8.66 -7 9.32 -7 10 C-9.08219049 10.81542431 -11.16579761 11.62723189 -13.25 12.4375 C-14.41015625 12.88996094 -15.5703125 13.34242188 -16.765625 13.80859375 C-27.65072906 17.81820334 -40.6077172 17.4669331 -51.2265625 12.875 C-51.81179687 12.58625 -52.39703125 12.2975 -53 12 C-49.92749994 11.04485324 -49.00591313 10.99829429 -45.75 11.9375 C-32.97249165 15.46150324 -19.53693003 13.07424854 -7.96875 7.21875 C-5.85570865 6.14900675 -5.85570865 6.14900675 -5 4 C-3.66666667 3.33333333 -2.33333333 2.66666667 -1 2 C-0.67 1.34 -0.34 0.68 0 0 Z " fill="#1B1B1B" transform="translate(301,412)"/>
<path d="M0 0 C0.99 0 1.98 0 3 0 C4.38671875 1.4609375 4.38671875 1.4609375 5.6875 3.375 C6.12449219 4.00148438 6.56148438 4.62796875 7.01171875 5.2734375 C8 7 8 7 8 9 C8.7425 9.226875 9.485 9.45375 10.25 9.6875 C13.5425747 11.2589561 14.97497109 12.99995716 17 16 C17 16.66 17 17.32 17 18 C15.35 18 13.7 18 12 18 C12.33 19.32 12.66 20.64 13 22 C10 21 10 21 8.5625 18.1875 C8.046875 17.135625 7.53125 16.08375 7 15 C6.29875 14.38125 5.5975 13.7625 4.875 13.125 C2.1019645 9.98222643 2.40587928 7.12643935 2 3 C1.34 2.67 0.68 2.34 0 2 C0 1.34 0 0.68 0 0 Z " fill="#0C0C0C" transform="translate(270,254)"/>
<path d="M0 0 C0.763125 0.061875 1.52625 0.12375 2.3125 0.1875 C1.03700717 4.0139785 -0.15757312 4.38331515 -3.6875 6.1875 C-10.85056952 8.81883166 -16.85212108 9.37000962 -24.4375 9.375 C-25.40171875 9.38724609 -26.3659375 9.39949219 -27.359375 9.41210938 C-40.91551553 9.43973738 -40.91551553 9.43973738 -45.6875 5.5625 C-46.0175 5.10875 -46.3475 4.655 -46.6875 4.1875 C-44.7075 4.1875 -42.7275 4.1875 -40.6875 4.1875 C-40.6875 4.8475 -40.6875 5.5075 -40.6875 6.1875 C-32.42580303 7.13169394 -23.99330186 7.85422423 -15.6875 7.1875 C-15.0275 6.5275 -14.3675 5.8675 -13.6875 5.1875 C-11.84765625 4.66015625 -11.84765625 4.66015625 -9.75 4.25 C-5.73602743 3.34757811 -3.8622836 0.26946165 0 0 Z " fill="#1B1B1B" transform="translate(161.6875,371.8125)"/>
<path d="M0 0 C0 0.66 0 1.32 0 2 C-0.66 2 -1.32 2 -2 2 C-2.33 2.99 -2.66 3.98 -3 5 C-3.66 5 -4.32 5 -5 5 C-5.33 5.99 -5.66 6.98 -6 8 C-17.35734653 15.73217329 -28.98037772 15.19534994 -42 14 C-42 13.67 -42 13.34 -42 13 C-40.40671875 12.90912109 -40.40671875 12.90912109 -38.78125 12.81640625 C-28.36284897 12.20729762 -28.36284897 12.20729762 -18 11 C-18 10.01 -18 9.02 -18 8 C-15.36 8 -12.72 8 -10 8 C-10 7.34 -10 6.68 -10 6 C-9.34 6 -8.68 6 -8 6 C-8 5.34 -8 4.68 -8 4 C-2.58823529 0 -2.58823529 0 0 0 Z " fill="#0E0E0E" transform="translate(290,184)"/>
<path d="M0 0 C-3.60410136 3.15358869 -7.55447905 4.45128963 -12 6 C-17.43581721 7.73783724 -17.43581721 7.73783724 -22 11 C-23.65249487 11.70105843 -25.32367583 12.35800351 -27 13 C-29.34120803 14.08959336 -31.67971433 15.1837969 -34.01171875 16.29296875 C-34.66785156 16.52628906 -35.32398438 16.75960938 -36 17 C-36.66 16.67 -37.32 16.34 -38 16 C-32.33128936 12.29353535 -26.53406493 9.19301276 -20.44140625 6.234375 C-18.11206208 5.21605676 -18.11206208 5.21605676 -17 4 C-15.33382885 3.95936168 -13.66611905 3.957279 -12 4 C-12 3.34 -12 2.68 -12 2 C-7.8803623 0.70756464 -4.33168317 -0.26252625 0 0 Z " fill="#191919" transform="translate(384,352)"/>
<path d="M0 0 C2.475 0.99 2.475 0.99 5 2 C5 2.99 5 3.98 5 5 C5.66 5 6.32 5 7 5 C7.680625 5.86625 8.36125 6.7325 9.0625 7.625 C12.87965917 12.4220866 18.19532709 16.06510903 24 18 C24 18.66 24 19.32 24 20 C24.721875 19.95875 25.44375 19.9175 26.1875 19.875 C29.20729369 20.00921305 31.26935729 20.75170619 34 22 C34 22.33 34 22.66 34 23 C26.57142857 23.14285714 26.57142857 23.14285714 23 22 C23 21.34 23 20.68 23 20 C22.32453125 19.94457031 21.6490625 19.88914063 20.953125 19.83203125 C16.81889597 18.66722863 14.06716694 16.34742743 10.75 13.6875 C10.11320312 13.20087891 9.47640625 12.71425781 8.8203125 12.21289062 C8.21445312 11.73400391 7.60859375 11.25511719 6.984375 10.76171875 C6.43491211 10.32819092 5.88544922 9.89466309 5.31933594 9.44799805 C3.72703561 7.70041602 3.39510158 6.30322064 3 4 C2.34 4 1.68 4 1 4 C0.67 2.68 0.34 1.36 0 0 Z " fill="#161616" transform="translate(333,188)"/>
<path d="M0 0 C0.66 0.33 1.32 0.66 2 1 C0.2126038 2.33905267 -1.58004953 3.67109066 -3.375 5 C-4.37273437 5.7425 -5.37046875 6.485 -6.3984375 7.25 C-9 9 -9 9 -11 9 C-11 9.66 -11 10.32 -11 11 C-14 13 -14 13 -17 13 C-17 13.66 -17 14.32 -17 15 C-20.1749094 16.9078584 -22.10585211 17.1609041 -25.75 16.625 C-26.54921875 16.51414062 -27.3484375 16.40328125 -28.171875 16.2890625 C-29.07679688 16.14597656 -29.07679688 16.14597656 -30 16 C-30 15.34 -30 14.68 -30 14 C-30.66 13.67 -31.32 13.34 -32 13 C-28.28111761 13.50712033 -25.26545761 14.11608215 -22 16 C-22 15.34 -22 14.68 -22 14 C-19.98102272 11.59735414 -17.86483295 10.24120455 -15.0625 8.875 C-14.39347656 8.54242188 -13.72445313 8.20984375 -13.03515625 7.8671875 C-11 7 -11 7 -8.80859375 6.5703125 C-8.21175781 6.38210938 -7.61492187 6.19390625 -7 6 C-6.67 5.01 -6.34 4.02 -6 3 C-3.0625 1.25 -3.0625 1.25 0 0 Z " fill="#0F0F0F" transform="translate(364,263)"/>
<path d="M0 0 C0.66 0 1.32 0 2 0 C1.85946128 2.62538284 1.71281053 5.25017427 1.5625 7.875 C1.50352539 8.99455078 1.50352539 8.99455078 1.44335938 10.13671875 C1.11328125 15.7734375 1.11328125 15.7734375 0 18 C-0.08667255 20.62627133 -0.11560135 23.22562483 -0.09765625 25.8515625 C-0.0962413 26.62559418 -0.09482635 27.39962585 -0.09336853 28.19711304 C-0.08776403 30.67311442 -0.07521083 33.14902588 -0.0625 35.625 C-0.05748558 37.30208203 -0.05292257 38.97916547 -0.04882812 40.65625 C-0.03779315 44.77086806 -0.02052554 48.88541878 0 53 C-0.33 53 -0.66 53 -1 53 C-2.05442195 48.68396959 -2.16117908 44.4759682 -2.16796875 40.05859375 C-2.17129715 39.29507095 -2.17462555 38.53154816 -2.17805481 37.74488831 C-2.18310498 36.13030598 -2.18546373 34.51571327 -2.18530273 32.90112305 C-2.18747128 30.46970637 -2.20559721 28.03875733 -2.22460938 25.60742188 C-2.25513953 16.87345026 -1.87001824 8.5787749 0 0 Z " fill="#0F0F0F" transform="translate(201,292)"/>
<path d="M0 0 C0.9178125 0.05220703 1.835625 0.10441406 2.78125 0.15820312 C5.02129261 0.2865389 7.26072975 0.42142597 9.5 0.5625 C9.5 0.8925 9.5 1.2225 9.5 1.5625 C8.32195801 1.62981323 8.32195801 1.62981323 7.12011719 1.69848633 C3.49594713 1.91228361 -0.12691641 2.14354546 -3.75 2.375 C-4.98492187 2.44525391 -6.21984375 2.51550781 -7.4921875 2.58789062 C-15.45648445 3.11185753 -22.83552574 4.32658418 -30.5 6.5625 C-30.5 5.5725 -30.5 4.5825 -30.5 3.5625 C-28.66830682 3.07710131 -26.83453941 2.59952814 -25 2.125 C-23.9790625 1.85816406 -22.958125 1.59132812 -21.90625 1.31640625 C-14.40163163 -0.344593 -7.63066609 -0.48246217 0 0 Z " fill="#131313" transform="translate(294.5,217.4375)"/>
<path d="M0 0 C8.57142857 1 8.57142857 1 12 2 C12 2.66 12 3.32 12 4 C13.01126953 4.13728516 13.01126953 4.13728516 14.04296875 4.27734375 C17.75097572 5.18352775 20.94828493 6.81283099 24.3125 8.5625 C25.28026367 9.0565332 25.28026367 9.0565332 26.26757812 9.56054688 C27.84785228 10.36824255 29.42432105 11.18337613 31 12 C31 12.99 31 13.98 31 15 C29.93523437 14.49210938 28.87046875 13.98421875 27.7734375 13.4609375 C18.59548439 9.10191429 9.37372399 4.92181162 0 1 C0 0.67 0 0.34 0 0 Z " fill="#1B1B1B" transform="translate(336,224)"/>
<path d="M0 0 C0.66 0.33 1.32 0.66 2 1 C2 1.66 2 2.32 2 3 C-8.89270793 7.3989782 -21.81595615 7.53180332 -33 4 C-33.33 3.34 -33.66 2.68 -34 2 C-33.19046875 2.16242188 -32.3809375 2.32484375 -31.546875 2.4921875 C-27.4106695 3.08437551 -23.42096795 3.14949908 -19.25 3.125 C-18.06108154 3.12209961 -18.06108154 3.12209961 -16.84814453 3.11914062 C-11.17604063 3.07737426 -5.6299945 2.7264509 0 2 C0 1.34 0 0.68 0 0 Z " fill="#1A1A1A" transform="translate(176,265)"/>
<path d="M0 0 C0.99 0.33 1.98 0.66 3 1 C3 1.66 3 2.32 3 3 C3.99 3.33 4.98 3.66 6 4 C7.36639342 5.6396721 8.6949419 7.31110128 10 9 C10.886875 9.86625 11.77375 10.7325 12.6875 11.625 C15 14 15 14 16 17 C16.66 17 17.32 17 18 17 C18.33 18.32 18.66 19.64 19 21 C15.62408715 19.87469572 14.71553201 18.83946383 12.4375 16.1875 C11.83808594 15.50042969 11.23867188 14.81335938 10.62109375 14.10546875 C9 12 9 12 7.97265625 9.80078125 C7.07313533 7.64414355 7.07313533 7.64414355 4 7 C0 2.54285714 0 2.54285714 0 0 Z " fill="#181818" transform="translate(301,288)"/>
<path d="M0 0 C0.66 0 1.32 0 2 0 C3.2890625 1.53125 3.2890625 1.53125 4.625 3.5 C5.07101562 4.1496875 5.51703125 4.799375 5.9765625 5.46875 C6.31429688 5.9740625 6.65203125 6.479375 7 7 C7 6.01 7 5.02 7 4 C6.34 4 5.68 4 5 4 C5 3.34 5 2.68 5 2 C8.75027162 3.25009054 9.20668727 4.47201829 11.1875 7.8125 C11.71730469 8.68519531 12.24710937 9.55789063 12.79296875 10.45703125 C14 13 14 13 14 17 C13.34 17 12.68 17 12 17 C11.34 15.35 10.68 13.7 10 12 C9.34 12 8.68 12 8 12 C8 11.34 8 10.68 8 10 C7.34 10 6.68 10 6 10 C4.4921875 8.3203125 4.4921875 8.3203125 2.875 6.125 C2.33617187 5.40570313 1.79734375 4.68640625 1.2421875 3.9453125 C0 2 0 2 0 0 Z " fill="#1F1F1F" transform="translate(304,334)"/>
<path d="M0 0 C0.66 0 1.32 0 2 0 C-0.44925876 5.55885689 -4.88875597 8.62310172 -9.875 11.875 C-13.99612251 13.3586041 -17.66838802 13.25989672 -22 13 C-18.66688525 11.2175082 -15.75519057 10.51207144 -12 10 C-12 9.34 -12 8.68 -12 8 C-9.34771188 6.92474806 -6.71631546 5.90543849 -4 5 C-4 4.34 -4 3.68 -4 3 C-3.01 2.67 -2.02 2.34 -1 2 C-0.67 1.34 -0.34 0.68 0 0 Z " fill="#131313" transform="translate(398,198)"/>
<path d="M0 0 C2.98955141 2.74042213 5.23728232 5.18073368 7.1875 8.75 C8.62678935 12.04811835 8.62678935 12.04811835 11 13 C12.2890625 15.1796875 12.2890625 15.1796875 13.625 17.875 C14.07101562 18.75929688 14.51703125 19.64359375 14.9765625 20.5546875 C16 23 16 23 16 26 C11.85788068 21.62517735 8.4756178 17.52135916 5.9765625 12.0234375 C4.55282816 9.07345995 2.75775444 6.39274919 0.953125 3.6640625 C0 2 0 2 0 0 Z " fill="#202020" transform="translate(287,284)"/>
<path d="M0 0 C2 0 2 0 3.48046875 1.46875 C4.04378906 2.1390625 4.60710937 2.809375 5.1875 3.5 C8.29922661 7.17392932 11.48152755 10.7686304 14.71484375 14.3359375 C16 16 16 16 16 18 C16.66 18 17.32 18 18 18 C18 18.66 18 19.32 18 20 C13.19301637 17.87342938 10.26968094 14.36475695 6.75 10.5625 C6.1003125 9.88123047 5.450625 9.19996094 4.78125 8.49804688 C4.16765625 7.83998047 3.5540625 7.18191406 2.921875 6.50390625 C2.36081055 5.90392822 1.79974609 5.3039502 1.22167969 4.68579102 C0 3 0 3 0 0 Z " fill="#101010" transform="translate(304,278)"/>
<path d="M0 0 C0.33 0.99 0.66 1.98 1 3 C0.36191406 3.33773438 -0.27617187 3.67546875 -0.93359375 4.0234375 C-1.75988281 4.46945312 -2.58617187 4.91546875 -3.4375 5.375 C-4.67306641 6.03628906 -4.67306641 6.03628906 -5.93359375 6.7109375 C-8.13466578 7.83418559 -8.13466578 7.83418559 -9 10 C-8.34 10.33 -7.68 10.66 -7 11 C-8.65 11 -10.3 11 -12 11 C-12.33 10.34 -12.66 9.68 -13 9 C-10.44735608 6.02191543 -7.46818428 4.73409214 -4 3 C-3.67 2.34 -3.34 1.68 -3 1 C-2.01 0.67 -1.02 0.34 0 0 Z M-16 10 C-15.01 10 -14.02 10 -13 10 C-14.04874998 12.62187494 -14.64931313 13.79371361 -17.125 15.25 C-17.74375 15.4975 -18.3625 15.745 -19 16 C-18.67 14.68 -18.34 13.36 -18 12 C-17.34 12 -16.68 12 -16 12 C-16 11.34 -16 10.68 -16 10 Z " fill="#171717" transform="translate(371,268)"/>
<path d="M0 0 C0.763125 0.061875 1.52625 0.12375 2.3125 0.1875 C1.03700717 4.0139785 -0.15757312 4.38331515 -3.6875 6.1875 C-7.85480297 7.87215439 -11.19982782 8.40119868 -15.6875 8.1875 C-13.6875 5.1875 -13.6875 5.1875 -11.84765625 4.5625 C-11.15542969 4.43875 -10.46320313 4.315 -9.75 4.1875 C-5.71082897 3.33026586 -3.87005933 0.27000414 0 0 Z " fill="#0E0E0E" transform="translate(161.6875,371.8125)"/>
<path d="M0 0 C0.99 0 1.98 0 3 0 C3 0.99 3 1.98 3 3 C-0.16980331 5.44939347 -2.99541169 7.38390949 -7 8 C-7 8.66 -7 9.32 -7 10 C-8.98 10.66 -10.96 11.32 -13 12 C-13.66 11.34 -14.32 10.68 -15 10 C-14.36191406 9.73445313 -13.72382813 9.46890625 -13.06640625 9.1953125 C-12.24011719 8.84210938 -11.41382813 8.48890625 -10.5625 8.125 C-9.73878906 7.77695312 -8.91507812 7.42890625 -8.06640625 7.0703125 C-5.84253285 6.1755063 -5.84253285 6.1755063 -5 4 C-3 3 -3 3 -1 2 C-0.67 1.34 -0.34 0.68 0 0 Z " fill="#0F0F0F" transform="translate(301,412)"/>
<path d="M0 0 C0.99 0 1.98 0 3 0 C4.38671875 1.4609375 4.38671875 1.4609375 5.6875 3.375 C6.12449219 4.00148438 6.56148438 4.62796875 7.01171875 5.2734375 C8 7 8 7 8 9 C7.01 9.495 7.01 9.495 6 10 C6.66 11.65 7.32 13.3 8 15 C5 14 5 14 3.3125 11.25 C2.06049331 8.14979295 1.71029875 6.28328088 2 3 C1.34 2.67 0.68 2.34 0 2 C0 1.34 0 0.68 0 0 Z " fill="#181818" transform="translate(270,254)"/>
<path d="M0 0 C0.99 0 1.98 0 3 0 C2.649375 0.598125 2.29875 1.19625 1.9375 1.8125 C0.66695302 4.10813214 0.66695302 4.10813214 2 7 C1.360625 7.12375 0.72125 7.2475 0.0625 7.375 C-0.9584375 7.684375 -0.9584375 7.684375 -2 8 C-2.33 8.66 -2.66 9.32 -3 10 C-3.99 9.67 -4.98 9.34 -6 9 C-5.1875 6.5625 -5.1875 6.5625 -4 4 C-3.01 3.67 -2.02 3.34 -1 3 C-0.67 2.01 -0.34 1.02 0 0 Z " fill="#111111" transform="translate(317,392)"/>
<path d="M0 0 C0.66386719 0.33773437 1.32773438 0.67546875 2.01171875 1.0234375 C3.33623047 1.69246094 3.33623047 1.69246094 4.6875 2.375 C5.55761719 2.81585938 6.42773438 3.25671875 7.32421875 3.7109375 C9.84772799 4.92664268 12.38737532 5.99260958 15 7 C15 7.66 15 8.32 15 9 C9.46103154 8.5384193 4.60352101 7.25614901 0 4 C-0.33 3.01 -0.66 2.02 -1 1 C-0.67 0.67 -0.34 0.34 0 0 Z " fill="#151515" transform="translate(225,186)"/>
<path d="M0 0 C0 0.66 0 1.32 0 2 C-0.66 2 -1.32 2 -2 2 C-2.33 2.99 -2.66 3.98 -3 5 C-3.66 5 -4.32 5 -5 5 C-5.33 5.99 -5.66 6.98 -6 8 C-11.22222222 11 -11.22222222 11 -14 11 C-13.67 10.01 -13.34 9.02 -13 8 C-12.01 8 -11.02 8 -10 8 C-10 7.34 -10 6.68 -10 6 C-9.34 6 -8.68 6 -8 6 C-8 5.34 -8 4.68 -8 4 C-2.58823529 0 -2.58823529 0 0 0 Z " fill="#161616" transform="translate(290,184)"/>
<path d="M0 0 C-0.66 1.32 -1.32 2.64 -2 4 C-2.66 4 -3.32 4 -4 4 C-4.33 4.99 -4.66 5.98 -5 7 C-10.93662491 10.13633014 -10.93662491 10.13633014 -14.4375 9.6875 C-14.953125 9.460625 -15.46875 9.23375 -16 9 C-15.34 9 -14.68 9 -14 9 C-14 8.34 -14 7.68 -14 7 C-12.948125 6.5875 -11.89625 6.175 -10.8125 5.75 C-7.12358969 4.18930718 -3.81793591 0 0 0 Z " fill="#121212" transform="translate(400,342)"/>
<path d="M0 0 C-8.261959 4.40774487 -8.261959 4.40774487 -13 5 C-13 5.66 -13 6.32 -13 7 C-14.32 7.33 -15.64 7.66 -17 8 C-16.34 6.68 -15.68 5.36 -15 4 C-14.01 4 -13.02 4 -12 4 C-12.33 3.01 -12.66 2.02 -13 1 C-11.329375 0.7834375 -11.329375 0.7834375 -9.625 0.5625 C-2.04545455 -0.61363636 -2.04545455 -0.61363636 0 0 Z " fill="#141414" transform="translate(261,225)"/>
<path d="M0 0 C0 0.66 0 1.32 0 2 C-2.31 2.33 -4.62 2.66 -7 3 C-7 3.66 -7 4.32 -7 5 C-8.175625 5.12375 -8.175625 5.12375 -9.375 5.25 C-12.14749104 5.72806339 -12.14749104 5.72806339 -13.3125 8.0625 C-13.539375 8.701875 -13.76625 9.34125 -14 10 C-14.99 10 -15.98 10 -17 10 C-14.91940685 4.79851714 -11.24084416 3.25531577 -6.47265625 0.91796875 C-4 0 -4 0 0 0 Z " fill="#101010" transform="translate(116,149)"/>
<path d="M0 0 C3.3718936 2.24792907 3.67665103 3.13469264 5 6.8125 C6.37408586 10.46439741 7.82439985 13.73659978 10 17 C9.34 17.33 8.68 17.66 8 18 C3.35058518 12.85243359 0 6.99826151 0 0 Z " fill="#0F0F0F" transform="translate(212,384)"/>
<path d="M0 0 C0.99 0.495 0.99 0.495 2 1 C3.0283474 6.03890228 3.08970351 10.88689982 3 16 C2.01 16 1.02 16 0 16 C0 10.72 0 5.44 0 0 Z " fill="#0B0B0B" transform="translate(76,320)"/>
<path d="M0 0 C0.33 0 0.66 0 1 0 C1.33 2.97 1.66 5.94 2 9 C-0.31 10.32 -2.62 11.64 -5 13 C-7.04119788 11.38405168 -9.04072937 9.7143618 -11 8 C-11 7.34 -11 6.68 -11 6 C-8 6 -8 6 -5.9375 8 C-5.298125 8.66 -4.65875 9.32 -4 10 C-3.34 10 -2.68 10 -2 10 C-2 9.34 -2 8.68 -2 8 C-1.34 8 -0.68 8 0 8 C0 5.36 0 2.72 0 0 Z " fill="#121212" transform="translate(332,304)"/>
<path d="M0 0 C1.485 0.99 1.485 0.99 3 2 C3 2.66 3 3.32 3 4 C3.66 4 4.32 4 5 4 C5.69965443 5.26418246 6.38434763 6.53665402 7.0625 7.8125 C7.63677734 8.87404297 7.63677734 8.87404297 8.22265625 9.95703125 C9 12 9 12 8 15 C5.31874582 12.61753661 3.88576541 10.1454496 2.3125 6.9375 C1.87550781 6.05964844 1.43851562 5.18179687 0.98828125 4.27734375 C0 2 0 2 0 0 Z " fill="#1A1A1A" transform="translate(280,288)"/>
<path d="M0 0 C6.67735068 1.70815948 10.12319513 5.49085623 14 11 C12.68 10.67 11.36 10.34 10 10 C10 9.34 10 8.68 10 8 C9.4225 7.87625 8.845 7.7525 8.25 7.625 C5.86624398 6.96284555 4.06428814 6.37619209 2 5 C0.75 2.375 0.75 2.375 0 0 Z " fill="#101010" transform="translate(114,250)"/>
<path d="M0 0 C-3.52296684 3.08259599 -7.48717517 4.86509158 -12 6 C-15 5.6875 -15 5.6875 -17 5 C-17 4.67 -17 4.34 -17 4 C-15.35 4 -13.7 4 -12 4 C-12 3.34 -12 2.68 -12 2 C-7.8803623 0.70756464 -4.33168317 -0.26252625 0 0 Z " fill="#121212" transform="translate(384,352)"/>
<path d="M0 0 C3.27346607 3.09652196 5.97509956 5.95019912 8 10 C8 10.99 8 11.98 8 13 C8.66 13 9.32 13 10 13 C9.67 13.99 9.34 14.98 9 16 C4.49583156 12.32993682 2.23209799 7.25091904 0 2 C0 1.34 0 0.68 0 0 Z " fill="#171717" transform="translate(309,319)"/>
<path d="M0 0 C2.91997367 1.10757622 3.87553962 1.77813585 5.4375 4.5625 C6.79062712 7.25430285 6.79062712 7.25430285 9.6875 7.8125 C10.8321875 7.9053125 10.8321875 7.9053125 12 8 C12 9.65 12 11.3 12 13 C9.525 12.01 9.525 12.01 7 11 C7 10.34 7 9.68 7 9 C6.34 9 5.68 9 5 9 C3.7109375 7.5390625 3.7109375 7.5390625 2.375 5.625 C1.92898438 4.99851562 1.48296875 4.37203125 1.0234375 3.7265625 C0 2 0 2 0 0 Z " fill="#161616" transform="translate(288,260)"/>
<path d="M0 0 C0.33 0.66 0.66 1.32 1 2 C0.01 3.485 0.01 3.485 -1 5 C-1.66 5 -2.32 5 -3 5 C-3 5.66 -3 6.32 -3 7 C-5.375 8.6875 -5.375 8.6875 -8 10 C-8.66 9.67 -9.32 9.34 -10 9 C-10 7 -10 7 -8.25 4.875 C-6 3 -6 3 -2 3 C-2 2.34 -2 1.68 -2 1 C-1.34 0.67 -0.68 0.34 0 0 Z " fill="#0F0F0F" transform="translate(232,363)"/>
<path d="M0 0 C3.18094931 1.09687907 3.95577313 1.92005143 5.625 4.9375 C6.07875 5.948125 6.5325 6.95875 7 8 C7.99 9.485 7.99 9.485 9 11 C8.67 11.99 8.34 12.98 8 14 C7.34 12.68 6.68 11.36 6 10 C5.01 10.33 4.02 10.66 3 11 C2.87625 10.113125 2.7525 9.22625 2.625 8.3125 C2.05587264 5.29612498 1.23385564 2.79673946 0 0 Z " fill="#1D1D1D" transform="translate(295,313)"/>
<path d="M0 0 C0.66 0.33 1.32 0.66 2 1 C0.2126038 2.33905267 -1.58004953 3.67109066 -3.375 5 C-4.37273437 5.7425 -5.37046875 6.485 -6.3984375 7.25 C-9 9 -9 9 -11 9 C-11 9.66 -11 10.32 -11 11 C-11.99 11 -12.98 11 -14 11 C-14 10.34 -14 9.68 -14 9 C-11.4385343 6.70351351 -10.52032428 6 -7 6 C-6.67 5.01 -6.34 4.02 -6 3 C-3.0625 1.25 -3.0625 1.25 0 0 Z " fill="#181818" transform="translate(364,263)"/>
<path d="M0 0 C0.99 0.33 1.98 0.66 3 1 C3 1.66 3 2.32 3 3 C5.64 2.34 8.28 1.68 11 1 C11 1.99 11 2.98 11 4 C8.6875 5.75 8.6875 5.75 6 7 C2.58841744 5.86280581 1.88145399 4.95657056 0 2 C0 1.34 0 0.68 0 0 Z " fill="#141414" transform="translate(317,364)"/>
<path d="M0 0 C0.66 0 1.32 0 2 0 C3.23681641 1.28515625 3.23681641 1.28515625 4.6015625 3.0625 C5.09140625 3.69414062 5.58125 4.32578125 6.0859375 4.9765625 C6.59382813 5.64429688 7.10171875 6.31203125 7.625 7 C8.3984375 8.00160156 8.3984375 8.00160156 9.1875 9.0234375 C10.46389136 10.6780189 11.73266232 12.33847368 13 14 C12.67 14.66 12.34 15.32 12 16 C9 14 9 14 8.125 12.1875 C7.02739266 9.7686926 7.02739266 9.7686926 4.5 7.5625 C2.0481606 5.04936462 1.03839869 3.30399584 0 0 Z " fill="#1F1F1F" transform="translate(289,316)"/>
<path d="M0 0 C0.99 0 1.98 0 3 0 C1.6581656 4.02550319 -0.4227573 4.88285636 -4 7 C-4.66 7 -5.32 7 -6 7 C-6.33 7.99 -6.66 8.98 -7 10 C-9.0625 10.6875 -9.0625 10.6875 -11 11 C-11 10.01 -11 9.02 -11 8 C-9.02 7.34 -7.04 6.68 -5 6 C-5 5.34 -5 4.68 -5 4 C-4.360625 3.71125 -3.72125 3.4225 -3.0625 3.125 C-0.84793921 2.17176549 -0.84793921 2.17176549 0 0 Z " fill="#1A1A1A" transform="translate(385,257)"/>
<path d="M0 0 C0.99 0.33 1.98 0.66 3 1 C2.34 8.59 1.68 16.18 1 24 C0.67 24 0.34 24 0 24 C0 16.08 0 8.16 0 0 Z " fill="#1A1A1A" transform="translate(321,136)"/>
<path d="M0 0 C-0.33 0.66 -0.66 1.32 -1 2 C-3.14453125 2.6328125 -3.14453125 2.6328125 -5.8125 3.125 C-7.12154297 3.37636719 -7.12154297 3.37636719 -8.45703125 3.6328125 C-11 4 -11 4 -15 4 C-15 3.01 -15 2.02 -15 1 C-9.92928099 0.28832014 -5.11791642 -0.10662326 0 0 Z " fill="#0C0C0C" transform="translate(359,104)"/>
<path d="M0 0 C0.33 0 0.66 0 1 0 C1 2.31 1 4.62 1 7 C0.67 7 0.34 7 0 7 C-0.2475 8.0725 -0.495 9.145 -0.75 10.25 C-1.99883146 13.99649437 -3.02488658 15.52073882 -6 18 C-5.67 16.02 -5.34 14.04 -5 12 C-4.34 12 -3.68 12 -3 12 C-2.87625 10.948125 -2.7525 9.89625 -2.625 8.8125 C-2.08859218 5.54041229 -1.36119965 2.99463924 0 0 Z " fill="#0F0F0F" transform="translate(413,316)"/>
<path d="M0 0 C6.6 0.33 13.2 0.66 20 1 C20 1.33 20 1.66 20 2 C12.08 2.33 4.16 2.66 -4 3 C-2.68 2.67 -1.36 2.34 0 2 C0 1.34 0 0.68 0 0 Z " fill="#0A0A0A" transform="translate(284,217)"/>
<path d="M0 0 C5.20059039 4.84192898 7.92300365 10.70543386 11 17 C7.13195947 15.71065316 6.51856091 14.16145439 4.375 10.75 C3.76398438 9.79609375 3.15296875 8.8421875 2.5234375 7.859375 C1.07926723 5.14877849 0.40809394 3.02210104 0 0 Z " fill="#1F1F1F" transform="translate(319,335)"/>
<path d="M0 0 C0.99 0.495 0.99 0.495 2 1 C2 1.66 2 2.32 2 3 C2.8971875 3.37125 2.8971875 3.37125 3.8125 3.75 C6.33586869 5.19192497 7.50030076 6.52549626 9 9 C9 9.99 9 10.98 9 12 C8.01 12 7.02 12 6 12 C5.566875 11.0925 5.13375 10.185 4.6875 9.25 C3.15019164 6.07225128 3.15019164 6.07225128 1.3125 3.75 C0 2 0 2 0 0 Z " fill="#1C1C1C" transform="translate(295,336)"/>
<path d="M0 0 C0.66 0 1.32 0 2 0 C0.58426179 3.39187279 -1.04230966 5.09697541 -4 7.25 C-5.051875 8.03117187 -5.051875 8.03117187 -6.125 8.828125 C-8 10 -8 10 -10 10 C-8.84172638 6.52517915 -7.911812 5.94446638 -5 3.875 C-2.38851475 2.06989989 -2.38851475 2.06989989 0 0 Z " fill="#1A1A1A" transform="translate(251,349)"/>
<path d="M0 0 C4.75481646 0.57634139 7.97048212 2.55068521 12 5 C12 5.66 12 6.32 12 7 C7.76570244 5.68938409 3.92592596 4.05643741 0 2 C0 1.34 0 0.68 0 0 Z " fill="#151515" transform="translate(138,289)"/>
<path d="M0 0 C2 0 2 0 3.76171875 1.64453125 C4.39722656 2.35996094 5.03273438 3.07539063 5.6875 3.8125 C6.65236328 4.87404297 6.65236328 4.87404297 7.63671875 5.95703125 C8.08660156 6.63121094 8.53648437 7.30539062 9 8 C8.67 8.99 8.34 9.98 8 11 C6.65772182 9.73861805 5.32641323 8.46555441 4 7.1875 C3.2575 6.47980469 2.515 5.77210938 1.75 5.04296875 C0 3 0 3 0 0 Z " fill="#252525" transform="translate(304,278)"/>
<path d="M0 0 C3.02990095 1.71967351 5.76327296 3.29238306 8 6 C8 6.66 8 7.32 8 8 C6.68 8 5.36 8 4 8 C4 7.01 4 6.02 4 5 C2.68 4.67 1.36 4.34 0 4 C0 2.68 0 1.36 0 0 Z " fill="#171717" transform="translate(392,256)"/>
<path d="M0 0 C0.33 0.99 0.66 1.98 1 3 C-1.64 5.31 -4.28 7.62 -7 10 C-7.33 9.01 -7.66 8.02 -8 7 C-7.34 6.01 -6.68 5.02 -6 4 C-5.01 4 -4.02 4 -3 4 C-2.67 3.01 -2.34 2.02 -2 1 C-1.34 0.67 -0.68 0.34 0 0 Z " fill="#171717" transform="translate(335,376)"/>
<path d="M0 0 C0.99 0 1.98 0 3 0 C4.82421875 2.1171875 4.82421875 2.1171875 6.6875 4.875 C7.31011719 5.77992188 7.93273437 6.68484375 8.57421875 7.6171875 C10 10 10 10 10 12 C9.34 12 8.68 12 8 12 C6.4921875 10.3203125 6.4921875 10.3203125 4.875 8.125 C4.33617187 7.40570313 3.79734375 6.68640625 3.2421875 5.9453125 C2 4 2 4 2 2 C1.34 2 0.68 2 0 2 C0 1.34 0 0.68 0 0 Z " fill="#121212" transform="translate(306,351)"/>
<path d="M0 0 C0.66 0 1.32 0 2 0 C2.84069415 1.60032137 3.67231505 3.20541171 4.5 4.8125 C4.9640625 5.70582031 5.428125 6.59914063 5.90625 7.51953125 C7 10 7 10 7 13 C5.81836949 11.78521149 4.65517165 10.55247592 3.5 9.3125 C2.8503125 8.62800781 2.200625 7.94351562 1.53125 7.23828125 C-0.27813784 4.59343628 -0.3077917 3.13837611 0 0 Z " fill="#121212" transform="translate(296,297)"/>
<path d="M0 0 C4.66154042 1.49835228 5.86610751 4.88463591 8 9 C7.01 9.33 6.02 9.66 5 10 C5 9.01 5 8.02 5 7 C4.34 7 3.68 7 3 7 C0 2.61538462 0 2.61538462 0 0 Z " fill="#181818" transform="translate(267,268)"/>
<path d="M0 0 C0.66 0 1.32 0 2 0 C0.72768281 4.97360357 -1.08584614 7.67296922 -5 11 C-5.66 11 -6.32 11 -7 11 C-7 8 -7 8 -5.125 5.8125 C-3 4 -3 4 -1 4 C-0.67 2.68 -0.34 1.36 0 0 Z " fill="#141414" transform="translate(193,250)"/>
<path d="M0 0 C2 1 2 1 2.88671875 2.9609375 C3.15097656 3.75757813 3.41523438 4.55421875 3.6875 5.375 C3.95949219 6.16648438 4.23148437 6.95796875 4.51171875 7.7734375 C5 10 5 10 4 13 C0.88303339 8.66335081 0.44033187 5.19591612 0 0 Z " fill="#101010" transform="translate(324,168)"/>
<path d="M0 0 C0.33 0.99 0.66 1.98 1 3 C0.00390625 4.82421875 0.00390625 4.82421875 -1.4375 6.6875 C-1.91058594 7.31011719 -2.38367188 7.93273437 -2.87109375 8.57421875 C-3.24363281 9.04472656 -3.61617188 9.51523438 -4 10 C-4.99 9.67 -5.98 9.34 -7 9 C-6.566875 8.608125 -6.13375 8.21625 -5.6875 7.8125 C-3.73625325 5.71671645 -2.43131962 3.47227935 -1 1 C-0.67 0.67 -0.34 0.34 0 0 Z " fill="#0B0B0B" transform="translate(295,174)"/>
<path d="M0 0 C0.66 0 1.32 0 2 0 C2 0.66 2 1.32 2 2 C2.598125 2.28875 3.19625 2.5775 3.8125 2.875 C6 4 6 4 9 6 C8.67 6.99 8.34 7.98 8 9 C6.84775972 8.07038578 5.70340824 7.1309875 4.5625 6.1875 C3.60537109 5.40439453 3.60537109 5.40439453 2.62890625 4.60546875 C1 3 1 3 0 0 Z " fill="#111111" transform="translate(224,406)"/>
<path d="M0 0 C1.98 0 3.96 0 6 0 C6 0.66 6 1.32 6 2 C7.65 2 9.3 2 11 2 C10.34 2.66 9.68 3.32 9 4 C5.72689117 3.79107816 3.67566943 3.56305786 1.125 1.4375 C0.75375 0.963125 0.3825 0.48875 0 0 Z " fill="#131313" transform="translate(115,376)"/>
<path d="M0 0 C0.556875 0.28875 1.11375 0.5775 1.6875 0.875 C4.02806407 2.05960441 4.02806407 2.05960441 6.6875 3 C9 4 9 4 10 6 C5.8333396 5.52651586 3.07115285 4.95303159 0 2 C0 1.34 0 0.68 0 0 Z " fill="#0F0F0F" transform="translate(130,261)"/>
<path d="M0 0 C4.43458973 1.3937282 6.87378374 3.60582235 10 7 C6.66666667 5.66666667 3.33333333 4.33333333 0 3 C0 2.01 0 1.02 0 0 Z " fill="#1A1A1A" transform="translate(372,241)"/>
<path d="M0 0 C4.71403788 0.47939368 8.66579301 0.96834048 13 3 C13 3.33 13 3.66 13 4 C5.57142857 4.14285714 5.57142857 4.14285714 2 3 C2 2.34 2 1.68 2 1 C1.34 0.67 0.68 0.34 0 0 Z " fill="#1B1B1B" transform="translate(354,207)"/>
<path d="M0 0 C0.33 0.99 0.66 1.98 1 3 C-0.75 4.5625 -0.75 4.5625 -3 6 C-5.25 5.6875 -5.25 5.6875 -7 5 C-6.34 4.67 -5.68 4.34 -5 4 C-5 3.34 -5 2.68 -5 2 C-3.35 1.34 -1.7 0.68 0 0 Z " fill="#171717" transform="translate(379,252)"/>
<path d="M0 0 C1.98 0.99 1.98 0.99 4 2 C4 2.66 4 3.32 4 4 C4.99 4.33 5.98 4.66 7 5 C6.67 5.99 6.34 6.98 6 8 C5.67 7.34 5.34 6.68 5 6 C4.34 5.71125 3.68 5.4225 3 5.125 C1 4 1 4 0.25 1.875 C0.1675 1.25625 0.085 0.6375 0 0 Z " fill="#101010" transform="translate(273,244)"/>
<path d="M0 0 C3.465 1.485 3.465 1.485 7 3 C7 3.99 7 4.98 7 6 C2.545 4.02 2.545 4.02 -2 2 C-1.34 1.34 -0.68 0.68 0 0 Z " fill="#121212" transform="translate(360,233)"/>
<path d="M0 0 C5.28 0.33 10.56 0.66 16 1 C16 1.33 16 1.66 16 2 C10.03654233 3.0006709 5.71271093 3.0662997 0 1 C0 0.67 0 0.34 0 0 Z " fill="#202020" transform="translate(256,328)"/>
<path d="M0 0 C0.99 0 1.98 0 3 0 C2.835 0.928125 2.67 1.85625 2.5 2.8125 C1.92251612 5.95621353 1.92251612 5.95621353 2 9 C1.67 8.34 1.34 7.68 1 7 C0.34 6.67 -0.32 6.34 -1 6 C-1.75 4.0625 -1.75 4.0625 -2 2 C-1.34 1.34 -0.68 0.68 0 0 Z " fill="#0E0E0E" transform="translate(302,326)"/>
<path d="M0 0 C0.33 0.99 0.66 1.98 1 3 C-4.75 7 -4.75 7 -7 7 C-7 5 -7 5 -5.1875 2.9375 C-3 1 -3 1 0 0 Z " fill="#0F0F0F" transform="translate(371,268)"/>
<path d="M0 0 C4.4062186 1.34634457 6.43077702 3.19374374 9 7 C9 7.66 9 8.32 9 9 C5.51127585 7.83709195 4.90023136 6.86032391 2.8125 3.9375 C2.28269531 3.20402344 1.75289063 2.47054688 1.20703125 1.71484375 C0.80871094 1.14894531 0.41039062 0.58304687 0 0 Z " fill="#1A1A1A" transform="translate(278,263)"/>
<path d="M0 0 C0 0.99 0 1.98 0 3 C-4.22222222 6 -4.22222222 6 -7 6 C-7 5.34 -7 4.68 -7 4 C-6.34 4 -5.68 4 -5 4 C-4.67 3.01 -4.34 2.02 -4 1 C-2 0 -2 0 0 0 Z " fill="#121212" transform="translate(232,242)"/>
<path d="M0 0 C1.65 0.33 3.3 0.66 5 1 C5 1.66 5 2.32 5 3 C2.23735711 3.59732819 -0.16032769 4 -3 4 C-2.01 2.68 -1.02 1.36 0 0 Z " fill="#131313" transform="translate(266,239)"/>
<path d="M0 0 C0 0.99 0 1.98 0 3 C-0.99 3.33 -1.98 3.66 -3 4 C-3 4.66 -3 5.32 -3 6 C-4.32 6.33 -5.64 6.66 -7 7 C-5.54744301 3.17053157 -3.57104439 1.87949705 0 0 Z " fill="#111111" transform="translate(243,345)"/>
<path d="M0 0 C5.78461538 3.44615385 5.78461538 3.44615385 6.875 6.25 C6.936875 7.11625 6.936875 7.11625 7 8 C5.68 7.34 4.36 6.68 3 6 C3 5.34 3 4.68 3 4 C2.34 4 1.68 4 1 4 C0.67 2.68 0.34 1.36 0 0 Z " fill="#151515" transform="translate(294,280)"/>
<path d="M0 0 C-0.33 0.66 -0.66 1.32 -1 2 C-4.0625 2.625 -4.0625 2.625 -7 3 C-7 2.01 -7 1.02 -7 0 C-4.3333581 -1.33332095 -2.83319697 -0.67102033 0 0 Z " fill="#0B0B0B" transform="translate(271,221)"/>
<path d="M0 0 C-3.20380017 2.13586678 -4.01939967 2.23132175 -7.6875 2.125 C-8.89986328 2.09792969 -8.89986328 2.09792969 -10.13671875 2.0703125 C-11.05904297 2.03550781 -11.05904297 2.03550781 -12 2 C-7.66032699 -0.21504143 -4.80574417 -1.54470348 0 0 Z " fill="#1C1C1C" transform="translate(388,209)"/>
<path d="M0 0 C0 0.99 0 1.98 0 3 C-0.66 3 -1.32 3 -2 3 C-2 3.66 -2 4.32 -2 5 C-3.32 5.33 -4.64 5.66 -6 6 C-3.84615385 0 -3.84615385 0 0 0 Z " fill="#0E0E0E" transform="translate(92,290)"/>
<path d="M0 0 C0.66 0.33 1.32 0.66 2 1 C-1.465 3.97 -1.465 3.97 -5 7 C-5 6.01 -5 5.02 -5 4 C-4.01 3.67 -3.02 3.34 -2 3 C-2 2.34 -2 1.68 -2 1 C-1.34 0.67 -0.68 0.34 0 0 Z " fill="#161616" transform="translate(222,360)"/>
</svg>
